<svg xmlns="http://www.w3.org/2000/svg" width="100" height="100" viewBox="0 0 100 100">
    <g fill="none" fill-rule="evenodd">
        <g fill-rule="nonzero">
            <g>
                <g transform="translate(-596 -6894) translate(469 6698) translate(127 196)">
                    <circle cx="50" cy="50" r="50" fill="#786FFE" opacity=".3"/>
                    <rect width="56" height="56" x="22" y="22" fill="#786FFE" rx="8"/>
                    <path fill="#FFF" d="M29 57c0-1.657 1.349-3 3-3h4c1.657 0 3 1.334 3 3v11c0 1.657-1.349 3-3 3h-4c-1.657 0-3-1.334-3-3V57zM45 44.994C45 43.341 46.349 42 48 42h4c1.657 0 3 1.34 3 2.994v23.012C55 69.659 53.651 71 52 71h-4c-1.657 0-3-1.34-3-2.994V44.994zM61 32.998C61 31.342 62.349 30 64 30h4c1.657 0 3 1.34 3 2.998v35.004C71 69.658 69.651 71 68 71h-4c-1.657 0-3-1.34-3-2.998V32.998z"/>
                </g>
            </g>
        </g>
    </g>
</svg>
