<svg width="200" height="200" viewBox="0 0 200 200" fill="none" xmlns="http://www.w3.org/2000/svg">
<g id="sentry">
<circle id="Oval" cx="100" cy="100" r="100" fill="#37C99B" fill-opacity="0.4"/>
<path id="Vector" fill-rule="evenodd" clip-rule="evenodd" d="M56.8 58.4C71.2475 58.4182 85.3138 53.7653 96.9006 45.1354C97.767 44.4023 98.8651 44 100 44C101.135 44 102.233 44.4023 103.099 45.1354C114.708 53.7241 128.76 58.3724 143.2 58.4C144.473 58.4 145.694 58.9057 146.594 59.8059C147.494 60.7061 148 61.927 148 63.2C148 116.144 133.762 145.64 101.834 158.837C100.659 159.321 99.3406 159.321 98.1657 158.837C66.238 145.638 52 116.142 52 63.2C52 61.927 52.5057 60.7061 53.4059 59.8059C54.3061 58.9057 55.527 58.4 56.8 58.4Z" fill="#37C99B"/>
</g>
</svg>
