<svg xmlns="http://www.w3.org/2000/svg" width="100" height="100" viewBox="0 0 100 100">
    <g fill="none" fill-rule="evenodd">
        <g fill-rule="nonzero">
            <g>
                <g transform="translate(-975 -6894) translate(469 6698) translate(506 196)">
                    <circle cx="50" cy="50" r="50" fill="#FFB534" opacity=".4"/>
                    <path fill="#FFB534" d="M70.872 60c1.783 0 2.43.186 3.082.534.652.349 1.163.86 1.512 1.512.348.652.534 1.299.534 3.082v4.744c0 1.783-.186 2.43-.534 3.082-.349.652-.86 1.163-1.512 1.512-.652.348-1.299.534-3.082.534H29.128c-1.783 0-2.43-.186-3.082-.534-.652-.349-1.163-.86-1.512-1.512-.348-.652-.534-1.299-.534-3.082v-4.744c0-1.783.186-2.43.534-3.082.349-.652.86-1.163 1.512-1.512.652-.348 1.299-.534 3.082-.534h41.744zm0-18c1.783 0 2.43.186 3.082.534.652.349 1.163.86 1.512 1.512.348.652.534 1.299.534 3.082v4.744c0 1.783-.186 2.43-.534 3.082-.349.652-.86 1.163-1.512 1.512-.652.348-1.299.534-3.082.534H29.128c-1.783 0-2.43-.186-3.082-.534-.652-.349-1.163-.86-1.512-1.512-.348-.652-.534-1.299-.534-3.082v-4.744c0-1.783.186-2.43.534-3.082.349-.652.86-1.163 1.512-1.512.652-.348 1.299-.534 3.082-.534h41.744zm0-18c1.783 0 2.43.186 3.082.534.652.349 1.163.86 1.512 1.512.348.652.534 1.299.534 3.082v4.744c0 1.783-.186 2.43-.534 3.082-.349.652-.86 1.163-1.512 1.512-.652.348-1.299.534-3.082.534H29.128c-1.783 0-2.43-.186-3.082-.534-.652-.349-1.163-.86-1.512-1.512-.348-.652-.534-1.299-.534-3.082v-4.744c0-1.783.186-2.43.534-3.082.349-.652.86-1.163 1.512-1.512.652-.348 1.299-.534 3.082-.534h41.744z"/>
                    <path fill="#FFF" d="M31.5 35c1.933 0 3.5-1.567 3.5-3.5S33.433 28 31.5 28 28 29.567 28 31.5s1.567 3.5 3.5 3.5zM31.5 53c1.933 0 3.5-1.567 3.5-3.5S33.433 46 31.5 46 28 47.567 28 49.5s1.567 3.5 3.5 3.5zM31.5 71c1.933 0 3.5-1.567 3.5-3.5S33.433 64 31.5 64 28 65.567 28 67.5s1.567 3.5 3.5 3.5z"/>
                </g>
            </g>
        </g>
    </g>
</svg>
